<svg xmlns="http://www.w3.org/2000/svg" xmlns:xlink="http://www.w3.org/1999/xlink" viewBox="0,0,256,256" width="64px" height="64px" fill-rule="nonzero"><g fill="#ad5cfa" fill-rule="nonzero" stroke="none" stroke-width="1" stroke-linecap="butt" stroke-linejoin="miter" stroke-miterlimit="10" stroke-dasharray="" stroke-dashoffset="0" font-family="none" font-weight="none" font-size="none" text-anchor="none" style="mix-blend-mode: normal"><g transform="scale(4,4)"><path d="M16.98438,4c-0.14997,0.00234 -0.29749,0.03839 -0.43164,0.10547l-2,1c-0.33878,0.16944 -0.55276,0.51574 -0.55273,0.89453v15c0.00025,0.2422 0.08839,0.47608 0.24805,0.6582l6.66211,7.61523l-2.85742,12.38672l-1.94727,3.89258c-0.1188,0.23723 -0.13848,0.51194 -0.05469,0.76367l2,6c0.03397,0.10175 0.08409,0.19737 0.14844,0.2832l3,4c0.18895,0.25216 0.48568,0.40053 0.80078,0.40039h5.25195c1.16203,3.92297 8.39785,3.91383 9.50977,0h5.23828c0.3151,0.00014 0.61183,-0.14823 0.80078,-0.40039l3,-4c0.06435,-0.08583 0.11447,-0.18145 0.14844,-0.2832l2,-6c0.07435,-0.2245 0.06674,-0.46808 -0.02148,-0.6875l-1.97461,-4.9375l-2.85547,-11.42773l6.6543,-7.60547c0.15965,-0.18213 0.24779,-0.416 0.24805,-0.6582v-15c0.00003,-0.37879 -0.21395,-0.72509 -0.55273,-0.89453l-2,-1c-0.38503,-0.19241 -0.84997,-0.11688 -1.1543,0.1875l-9,9c-0.14742,0.14745 -0.24507,0.33729 -0.2793,0.54297l-1.82227,10.93164l-2.94922,-0.73828c-0.15902,-0.03969 -0.32536,-0.03969 -0.48438,0l-2.94922,0.73828l-1.82227,-10.93164c-0.03422,-0.20568 -0.13187,-0.39552 -0.2793,-0.54297l-9,-9c-0.19132,-0.19141 -0.45205,-0.29711 -0.72266,-0.29297zM16.80273,6.2168l8.26367,8.26367l1.94727,11.68359c0.0457,0.27534 0.20438,0.51905 0.43769,0.67224c0.23331,0.15319 0.52001,0.20192 0.79083,0.1344l3.75781,-0.93945l3.75781,0.93945c0.27082,0.06751 0.55752,0.01879 0.79083,-0.1344c0.23331,-0.15319 0.39199,-0.3969 0.43769,-0.67224l1.94727,-11.68359l8.26367,-8.26367l0.80273,0.40039v14.00781l-6.75195,7.7168c-0.21594,0.24621 -0.29765,0.58255 -0.21875,0.90039l1.73242,6.93359l-1.76172,-1.17578h-1l-1.78516,1.78516c-0.14,0.14 -0.23544,0.31772 -0.27344,0.51172l-0.70117,3.50781c-0.125,0.619 0.34947,1.19531 0.98047,1.19531h1.36523c0.265,0 0.52003,-0.10497 0.70703,-0.29297l1.70703,-1.70703l1.25,-1.875l0.7793,3.11719c0.01138,0.04389 0.02574,0.08696 0.04297,0.12891l1.86328,4.66016l-1.83203,5.49805l-2.60352,3.4707h-5.16602l-3.33398,-2.5v-1.08594l1.70703,-1.70703c0.26124,-0.25082 0.36648,-0.62327 0.27512,-0.97371c-0.09136,-0.35044 -0.36503,-0.62411 -0.71547,-0.71547c-0.35044,-0.09136 -0.72289,0.01388 -0.97371,0.27512l-1.29297,1.29297l-1.29297,-1.29297c-0.18827,-0.19353 -0.4468,-0.30272 -0.7168,-0.30273c-0.40692,0.00011 -0.77321,0.24676 -0.92633,0.62377c-0.15312,0.37701 -0.06255,0.80921 0.22907,1.09303l1.70703,1.70703v1.08594l-3.33398,2.5h-5.16602l-2.60352,-3.4707l-1.81641,-5.45312l1.81445,-3.62891c0.03541,-0.07079 0.06229,-0.14553 0.08008,-0.22266l0.95898,-4.15234l1.28516,1.92773l1.70898,1.70703c0.187,0.188 0.44203,0.29297 0.70703,0.29297h1.36523c0.631,0 1.10352,-0.57631 0.97852,-1.19531l-0.70117,-3.50781c-0.038,-0.194 -0.13148,-0.37172 -0.27148,-0.51172l-1.78711,-1.78516h-1l-1.86328,1.24219l1.61914,-7.01758c0.0718,-0.31295 -0.01103,-0.64134 -0.22266,-0.88281l-6.75195,-7.7168v-14.00781zM32,27.96875c-0.552,0 -1,0.447 -1,1v2.0625c0,0.553 0.448,1 1,1c0.552,0 1,-0.447 1,-1v-2.0625c0,-0.553 -0.448,-1 -1,-1zM26.9043,29.40039c-0.12959,0.00822 -0.25931,0.04201 -0.38281,0.10352c-0.494,0.247 -0.69427,0.8478 -0.44727,1.3418l0.89453,1.78711c0.176,0.351 0.52948,0.55273 0.89648,0.55273c0.151,0 0.30231,-0.03447 0.44531,-0.10547c0.494,-0.247 0.69427,-0.8478 0.44727,-1.3418l-0.89453,-1.78906c-0.186,-0.3705 -0.5702,-0.57348 -0.95898,-0.54883zM37.0957,29.40039c-0.38902,-0.02452 -0.77373,0.18028 -0.95898,0.55078l-0.89453,1.78711c-0.247,0.494 -0.04673,1.0948 0.44727,1.3418c0.143,0.071 0.29531,0.10547 0.44531,0.10547c0.366,0 0.72048,-0.20178 0.89648,-0.55078l0.89453,-1.78906c0.247,-0.494 0.04673,-1.0948 -0.44727,-1.3418c-0.1235,-0.06125 -0.25314,-0.09534 -0.38281,-0.10352zM32,54.25l2.93945,2.20508c-0.57474,2.06195 -5.25203,2.05977 -5.86914,-0.00781z"></path></g></g></svg>